:version 1.10
:name ASF
:units
  mass 1
  length 1
  angle deg
:documentation
  ASF file generated by Kaydara
:root
  axis xyz
  order  tx ty tz rx ry rz
  position 0 0 0
  orientation 0 0 0
:bonedata
  begin
    id 1
    name RightUpLegDummy
    direction -0.718183 -0.695806 0.00816078
    length 4.904
    axis 0 0 0 xyz
  end
  begin
    id 2
    name RightUpLeg
    direction -0.0736652 -0.994202 0.0783343
    length 17.4976
    axis -2.72909 -3.00389 -4.00133 xyz
    dof rx ry rz
  end
  begin
    id 3
    name RightLeg
    direction -0.0389037 -0.994596 -0.0962598
    length 16.5821
    axis 3.95836 -18.5909 -4.46993 xyz
    dof rx ry rz
  end
  begin
    id 4
    name RightFoot
    direction -0.311643 -0.412678 0.855906
    length 3.77069
    axis -1.99483 -18.8351 -3.27644 xyz
    dof rx ry rz
  end
  begin
    id 5
    name RightToes
    direction -0.317852 0.0389852 0.947339
    length 3.85082
    axis -2.00228 -18.1713 -3.25211 xyz
    dof rx ry rz
  end
  begin
    id 6
    name SpineDummy
    direction 8.3039e-015 1 4.44677e-016
    length 4.6813
    axis 0 0 0 xyz
  end
  begin
    id 7
    name Spine
    direction -0.000262373 0.999988 0.00493267
    length 10.1015
    axis -0.00246081 0.00062579 0.0150362 xyz
    dof rx ry rz
  end
  begin
    id 8
    name Spine1
    direction 0 0 0
    length 0
    axis -0.00349562 0.000650293 0.0196666 xyz
    dof rx ry rz
  end
  begin
    id 9
    name HEadDummy
    direction -0.000343232 0.999999 0.00123745
    length 3.43865
    axis -0.00349562 0.000650293 0.0196666 xyz
  end
  begin
    id 10
    name HEad
    direction -0.0461221 0.980933 0.188796
    length 5.12695
    axis -0.00351404 -7.04812 0.0199272 xyz
    dof rx ry rz
  end
  begin
    id 11
    name LeftShoulder1Dummy
    direction 0.998904 -0.0399089 -0.0244534
    length 3.5433
    axis -0.00349562 0.000650293 0.0196666 xyz
  end
  begin
    id 12
    name LeftShoulder1
    direction 0.99951 1.64443e-005 0.0312999
    length 4.05031
    axis -0.00349562 0.000650293 0.0196666 xyz
    dof rx ry rz
  end
  begin
    id 13
    name LeftArm
    direction 0.984791 0.0515299 0.165927
    length 12.9126
    axis -64.823 -10.7743 5.20463 xyz
    dof rx ry rz
  end
  begin
    id 14
    name LeftForeArm
    direction 0.984968 0.0534808 0.16425
    length 10.8596
    axis -30.0462 -7.70601 1.87451 xyz
    dof rx ry rz
  end
  begin
    id 15
    name LeftHand
    direction 0.975871 0.0289682 0.216418
    length 6.62295
    axis -20.1348 -6.98077 1.86072 xyz
    dof rx ry rz
  end
  begin
    id 16
    name RightShoulderDummy
    direction -0.998877 -0.0405946 -0.0244307
    length 3.5433
    axis -0.00349562 0.000650293 0.0196666 xyz
  end
  begin
    id 17
    name RightShoulder
    direction -0.998933 -0.0249743 -0.0388558
    length 4.05031
    axis -0.0205316 -4.02113 1.41395 xyz
    dof rx ry rz
  end
  begin
    id 18
    name RightArm
    direction -0.997559 0.068664 0.0127103
    length 12.9638
    axis -67.3882 1.84188 -6.15987 xyz
    dof rx ry rz
  end
  begin
    id 19
    name RightForeArm
    direction -0.991508 0.0912848 0.0926241
    length 10.8312
    axis -22.1975 3.41087 -4.28711 xyz
    dof rx ry rz
  end
  begin
    id 20
    name RightHand
    direction -0.989262 0.0600788 0.133232
    length 6.57864
    axis -12.2911 2.17515 -4.39675 xyz
    dof rx ry rz
  end
  begin
    id 21
    name LeftUpLegDummy
    direction 0.718183 -0.695806 0.00816078
    length 4.904
    axis 0 0 0 xyz
  end
  begin
    id 22
    name LeftUpLeg
    direction 0.0831398 -0.99469 0.0606531
    length 17.4976
    axis -1.71016 2.29552 4.63832 xyz
    dof rx ry rz
  end
  begin
    id 23
    name LeftLeg
    direction 0.0498442 -0.991778 -0.117862
    length 16.5821
    axis 5.13757 15.5727 5.13348 xyz
    dof rx ry rz
  end
  begin
    id 24
    name LeftFoot
    direction 0.269026 -0.433896 0.85986
    length 3.77069
    axis -0.576502 15.6961 4.10267 xyz
    dof rx ry rz
  end
  begin
    id 25
    name LeftToes
    direction 0.277311 0.0251143 0.960452
    length 3.85048
    axis -0.576502 15.6961 4.10267 xyz
    dof rx ry rz
  end
:hierarchy
  begin
    root RightUpLegDummy SpineDummy LeftUpLegDummy
    RightUpLegDummy RightUpLeg
    RightUpLeg RightLeg
    RightLeg RightFoot
    RightFoot RightToes
    SpineDummy Spine
    Spine Spine1
    Spine1 HEadDummy LeftShoulder1Dummy RightShoulderDummy
    HEadDummy HEad
    LeftShoulder1Dummy LeftShoulder1
    LeftShoulder1 LeftArm
    LeftArm LeftForeArm
    LeftForeArm LeftHand
    RightShoulderDummy RightShoulder
    RightShoulder RightArm
    RightArm RightForeArm
    RightForeArm RightHand
    LeftUpLegDummy LeftUpLeg
    LeftUpLeg LeftLeg
    LeftLeg LeftFoot
    LeftFoot LeftToes
  end

:SAMPLES-PER-SECOND 30
:FULLY-SPECIFIED
:DEGREES
19
root  -4.36285 40.2666 -4.41331 -0.239709 -6.96333 -0.121676
RightUpLeg  -0.976668 -0.915176 0.911773
RightLeg  0.290531 -10.9077 1.52133
RightFoot  0.742394 0.00254331 -0.0679498
RightToes  1.74624e-010 -3.18055e-015 -2.98177e-016
Spine  -4.18179 -0.0373125 -0.653755
Spine1  10.1965 -0.662076 2.68566
HEad  -10.4605 7.23598 1.8156
LeftShoulder1  -3.88251e-019 9.70628e-020 -3.87848e-018
LeftArm  -14.7899 43.1141 -40.0193
LeftForeArm  -10.8166 -4.77365 0.0102
LeftHand  -0.0194087 0.974025 0.444135
RightShoulder  5.87443 9.31418 29.3713
RightArm  -2.78732 -30.2745 8.89202
RightForeArm  -12.8443 7.87383 -8.17466
RightHand  -0.135561 -1.51913 -3.72842
LeftUpLeg  -0.821788 -1.47288 -1.15423
LeftLeg  2.97552 13.1416 2.83766
LeftFoot  -0.781873 0.062252 -0.595508
LeftToes  7.37594e-011 2.64622e-011 -6.25182e-011
20
root  -4.37961 40.266 -4.4024 -0.17785 -7.04022 -0.124506
RightUpLeg  -1.05608 -0.884006 0.951867
RightLeg  0.336933 -10.8745 1.49109
RightFoot  0.702774 0.00138035 -0.0560285
RightToes  1.74624e-010 -3.18055e-015 -2.98177e-016
Spine  -4.27857 0.000541385 -0.776814
Spine1  10.3944 -0.689739 2.95594
HEad  -10.6446 7.08105 1.6331
LeftShoulder1  -3.88251e-019 9.70628e-020 -3.87848e-018
LeftArm  -15.2737 43.2958 -40.5242
LeftForeArm  -10.9832 -4.85102 0.11928
LeftHand  -0.043929 0.565141 1.10932
RightShoulder  5.83357 9.29706 29.1775
RightArm  -2.67247 -30.3895 9.02096
RightForeArm  -13.8857 8.1144 -8.08467
RightHand  -0.122815 -2.1773 -3.95371
LeftUpLeg  -0.841684 -1.41689 -1.10158
LeftLeg  2.95573 13.1799 2.78572
LeftFoot  -0.804502 0.0639398 -0.613576
LeftToes  7.37594e-011 2.64622e-011 -6.25182e-011
21
root  -4.40241 40.2652 -4.3877 -0.0632139 -7.11654 -0.165546
RightUpLeg  -1.1591 -0.801465 1.04948
RightLeg  0.341712 -10.8928 1.47152
RightFoot  0.67945 0.00113014 -0.0534638
RightToes  1.74624e-010 -3.18055e-015 -2.98177e-016
Spine  -4.44039 0.057535 -0.718428
Spine1  10.6155 -0.662436 3.04058
HEad  -10.8532 6.77077 1.46024
LeftShoulder1  -3.88251e-019 9.70628e-020 -3.87848e-018
LeftArm  -15.838 43.4055 -41.0228
LeftForeArm  -10.704 -4.79142 0.290478
LeftHand  -0.0521751 -0.0147537 1.22794
RightShoulder  5.78381 9.25855 28.9783
RightArm  -2.68416 -30.6083 9.17017
RightForeArm  -14.3709 8.25195 -8.101
RightHand  -0.124401 -2.24013 -4.08745
LeftUpLeg  -0.939225 -1.31271 -0.989973
LeftLeg  3.00427 13.1626 2.74748
LeftFoot  -0.854511 0.067784 -0.651461
LeftToes  7.37594e-011 2.64622e-011 -6.25182e-011
22
root  -4.43184 40.2643 -4.36275 0.0431414 -7.20289 -0.247273
RightUpLeg  -1.19974 -0.726797 1.17502
RightLeg  0.305397 -10.8886 1.51886
RightFoot  0.641659 0.00420183 -0.0849511
RightToes  1.74624e-010 -3.18055e-015 -2.98177e-016
Spine  -4.38419 0.112505 -0.360191
Spine1  10.4862 -0.539335 2.70405
HEad  -10.6087 6.66715 1.57785
LeftShoulder1  -3.88251e-019 9.70628e-020 -3.87848e-018
LeftArm  -16.2871 43.5583 -41.3706
LeftForeArm  -10.556 -4.72852 0.425559
LeftHand  -0.0543663 -0.481009 1.20546
RightShoulder  5.78188 9.23469 29.0179
RightArm  -2.90763 -30.7881 9.13083
RightForeArm  -13.6576 7.89807 -8.24046
RightHand  -0.142405 -2.02272 -4.45654
LeftUpLeg  -1.02017 -1.13377 -0.80483
LeftLeg  3.09491 13.0552 2.69609
LeftFoot  -0.938261 0.0765343 -0.73549
LeftToes  7.37594e-011 2.64622e-011 -6.25182e-011
